<svg xmlns="http://www.w3.org/2000/svg" width="25" height="24" fill="none"><path fill="url(#a)" stroke="url(#b)" stroke-width="2" d="M23.961 7.376C23.625 3.681 21.01 1 17.737 1c-2.18 0-4.177 1.174-5.301 3.055C11.323 2.15 9.408 1 7.262 1 3.99 1 1.374 3.68 1.038 7.376c-.026.163-.135 1.022.196 2.423.477 2.02 1.578 3.858 3.184 5.314l8.013 7.27 8.15-7.27c1.606-1.456 2.707-3.293 3.184-5.314.331-1.4.222-2.26.196-2.423Z"/><defs><linearGradient id="a" x1="0" x2="24" y1="1" y2="18" gradientUnits="userSpaceOnUse"><stop stop-color="#F84D00"/><stop offset="1" stop-color="#920000"/></linearGradient><linearGradient id="b" x1="0" x2="24" y1="1" y2="18" gradientUnits="userSpaceOnUse"><stop stop-color="#F84D00"/><stop offset="1" stop-color="#920000"/></linearGradient></defs></svg>