<svg width="27" height="26" viewBox="0 0 27 26" fill="none" xmlns="http://www.w3.org/2000/svg">
<path d="M24.9611 8.37646C24.6253 4.68133 22.0099 2.00044 18.7368 2.00044C16.5561 2.00044 14.5595 3.17391 13.436 5.05465C12.3227 3.14958 10.4079 2 8.26223 2C4.98952 2 2.37365 4.68089 2.03838 8.37602C2.01184 8.53923 1.90303 9.39821 2.23388 10.799C2.7107 12.8195 3.81207 14.6574 5.41813 16.1126L13.4307 23.3839L21.5809 16.113C23.1869 14.6574 24.2883 12.82 24.7651 10.799C25.096 9.39866 24.9872 8.53967 24.9611 8.37646Z" stroke="url(#paint0_linear_17_215)" stroke-width="3"/>
<defs>
<linearGradient id="paint0_linear_17_215" x1="1" y1="2" x2="25" y2="19" gradientUnits="userSpaceOnUse">
<stop stop-color="#F84D00"/>
<stop offset="1" stop-color="#920000"/>
</linearGradient>
</defs>
</svg>
