<svg width="347" height="36" viewBox="0 0 347 36" fill="none" xmlns="http://www.w3.org/2000/svg">
<path d="M129.25 29L121.3 8H126.16L131.68 23.6L136.9 8H141.4L133.72 29H129.25ZM144.114 29V8H152.604C154.364 8 155.824 8.28 156.984 8.84C158.164 9.4 159.054 10.19 159.654 11.21C160.254 12.21 160.554 13.39 160.554 14.75C160.554 16.19 160.184 17.45 159.444 18.53C158.704 19.59 157.574 20.36 156.054 20.84L161.154 29H155.964L151.554 21.32H148.584V29H144.114ZM148.584 17.78H151.734C153.394 17.78 154.534 17.53 155.154 17.03C155.774 16.51 156.084 15.75 156.084 14.75C156.084 13.75 155.774 13 155.154 12.5C154.534 11.98 153.394 11.72 151.734 11.72H148.584V17.78ZM172.326 29V8H187.116V11.72H176.796V15.74H180.696C183.556 15.74 185.666 16.35 187.026 17.57C188.386 18.79 189.066 20.39 189.066 22.37C189.066 24.35 188.386 25.95 187.026 27.17C185.666 28.39 183.556 29 180.696 29H172.326ZM176.796 25.28H180.246C181.886 25.28 183.016 25.03 183.636 24.53C184.276 24.01 184.596 23.29 184.596 22.37C184.596 21.45 184.276 20.74 183.636 20.24C183.016 19.72 181.886 19.46 180.246 19.46H176.796V25.28ZM191.971 29V13.1H195.901V23.3L202.981 13.1H206.611V29H202.681V18.8L195.601 29H191.971ZM217.451 29.36C215.991 29.36 214.661 29.02 213.461 28.34C212.281 27.66 211.351 26.65 210.671 25.31C209.991 23.95 209.651 22.26 209.651 20.24V19.61C209.651 17.21 209.901 15.17 210.401 13.49C210.901 11.79 211.741 10.47 212.921 9.53C214.121 8.59 215.771 8.07 217.871 7.97C218.711 7.93 219.521 7.9 220.301 7.88C221.081 7.84 221.791 7.78 222.431 7.7C223.071 7.6 223.611 7.45 224.051 7.25V10.76C223.851 10.88 223.521 10.99 223.061 11.09C222.601 11.19 221.991 11.27 221.231 11.33C220.471 11.37 219.501 11.4 218.321 11.42C217.121 11.44 216.141 11.62 215.381 11.96C214.621 12.28 214.041 12.82 213.641 13.58C213.241 14.34 212.971 15.37 212.831 16.67C213.151 16.07 213.561 15.55 214.061 15.11C214.561 14.65 215.181 14.29 215.921 14.03C216.661 13.77 217.521 13.64 218.501 13.64C219.821 13.64 220.991 13.91 222.011 14.45C223.031 14.99 223.821 15.79 224.381 16.85C224.961 17.91 225.251 19.21 225.251 20.75V21.35C225.251 23.01 224.911 24.44 224.231 25.64C223.551 26.84 222.621 27.76 221.441 28.4C220.281 29.04 218.951 29.36 217.451 29.36ZM217.451 26C218.651 26 219.581 25.61 220.241 24.83C220.901 24.03 221.231 22.9 221.231 21.44V20.84C221.231 19.56 220.891 18.57 220.211 17.87C219.531 17.15 218.611 16.79 217.451 16.79C216.291 16.79 215.371 17.15 214.691 17.87C214.011 18.59 213.671 19.58 213.671 20.84V21.38C213.671 22.34 213.831 23.17 214.151 23.87C214.491 24.55 214.941 25.08 215.501 25.46C216.081 25.82 216.731 26 217.451 26ZM227.95 29.36C227.79 29.36 227.59 29.35 227.35 29.33C227.11 29.33 226.91 29.31 226.75 29.27V25.7C226.81 25.72 226.96 25.73 227.2 25.73C227.72 25.73 228.14 25.52 228.46 25.1C228.8 24.66 229.05 23.91 229.21 22.85C229.37 21.79 229.45 20.34 229.45 18.5V13.1H242.05V29H238.09V16.4H233.11V19.1C233.11 21.16 233 22.86 232.78 24.2C232.58 25.54 232.26 26.59 231.82 27.35C231.4 28.09 230.87 28.61 230.23 28.91C229.59 29.21 228.83 29.36 227.95 29.36ZM245.672 29V13.1H249.602V23.3L256.682 13.1H260.312V29H256.382V18.8L249.302 29H245.672ZM271.152 29.36C269.712 29.36 268.382 29.07 267.162 28.49C265.962 27.89 265.002 26.98 264.282 25.76C263.562 24.54 263.202 23.02 263.202 21.2V20.6C263.202 18.88 263.562 17.44 264.282 16.28C265.002 15.1 265.962 14.22 267.162 13.64C268.382 13.04 269.712 12.74 271.152 12.74C272.612 12.74 273.942 13.04 275.142 13.64C276.342 14.22 277.302 15.1 278.022 16.28C278.742 17.44 279.102 18.88 279.102 20.6V21.2C279.102 22.98 278.742 24.48 278.022 25.7C277.302 26.92 276.342 27.84 275.142 28.46C273.942 29.06 272.612 29.36 271.152 29.36ZM271.152 26C271.912 26 272.582 25.83 273.162 25.49C273.762 25.13 274.232 24.59 274.572 23.87C274.912 23.15 275.082 22.26 275.082 21.2V20.6C275.082 19.62 274.912 18.8 274.572 18.14C274.232 17.48 273.762 16.98 273.162 16.64C272.582 16.28 271.912 16.1 271.152 16.1C270.392 16.1 269.712 16.28 269.112 16.64C268.532 16.98 268.072 17.48 267.732 18.14C267.392 18.8 267.222 19.62 267.222 20.6V21.2C267.222 22.28 267.392 23.18 267.732 23.9C268.072 24.6 268.532 25.13 269.112 25.49C269.712 25.83 270.392 26 271.152 26ZM285.518 29V16.4H280.448V13.1H294.518V16.4H289.478V29H285.518ZM303.818 29.36C302.378 29.36 301.048 29.07 299.828 28.49C298.628 27.89 297.668 26.99 296.948 25.79C296.228 24.57 295.868 23.04 295.868 21.2V20.6C295.868 18.84 296.208 17.38 296.888 16.22C297.588 15.06 298.518 14.19 299.678 13.61C300.838 13.03 302.118 12.74 303.518 12.74C306.018 12.74 307.918 13.4 309.218 14.72C310.518 16.04 311.168 17.95 311.168 20.45V22.13H299.918C299.958 23.07 300.158 23.84 300.518 24.44C300.898 25.02 301.378 25.45 301.958 25.73C302.538 25.99 303.158 26.12 303.818 26.12C304.838 26.12 305.608 25.97 306.128 25.67C306.648 25.37 307.018 24.93 307.238 24.35H310.868C310.548 26.01 309.758 27.26 308.498 28.1C307.238 28.94 305.678 29.36 303.818 29.36ZM303.668 15.98C303.048 15.98 302.448 16.08 301.868 16.28C301.288 16.48 300.828 16.84 300.488 17.36C300.148 17.86 299.958 18.53 299.918 19.37H307.328C307.308 18.47 307.128 17.78 306.788 17.3C306.468 16.8 306.038 16.46 305.498 16.28C304.958 16.08 304.348 15.98 303.668 15.98ZM314.051 29V13.1H317.981V19.34H319.451L324.371 13.1H328.721L322.721 20.63L329.021 29H324.281L319.451 22.46H317.981V29H314.051ZM335.754 29.36C334.614 29.36 333.644 29.15 332.844 28.73C332.044 28.29 331.434 27.69 331.014 26.93C330.594 26.17 330.384 25.31 330.384 24.35C330.384 22.75 330.854 21.55 331.794 20.75C332.754 19.95 334.184 19.55 336.084 19.55H340.824V18.8C340.824 17.76 340.584 17.03 340.104 16.61C339.644 16.19 338.904 15.98 337.884 15.98C336.984 15.98 336.334 16.14 335.934 16.46C335.534 16.76 335.304 17.14 335.244 17.6H331.284C331.344 16.68 331.634 15.86 332.154 15.14C332.694 14.4 333.454 13.82 334.434 13.4C335.434 12.96 336.634 12.74 338.034 12.74C339.394 12.74 340.574 12.94 341.574 13.34C342.594 13.74 343.384 14.39 343.944 15.29C344.504 16.17 344.784 17.36 344.784 18.86V24.95C344.784 25.79 344.794 26.53 344.814 27.17C344.854 27.79 344.914 28.4 344.994 29H341.304C341.224 28.56 341.174 28.23 341.154 28.01C341.154 27.77 341.154 27.42 341.154 26.96C340.734 27.6 340.074 28.16 339.174 28.64C338.274 29.12 337.134 29.36 335.754 29.36ZM336.984 26.3C337.624 26.3 338.234 26.19 338.814 25.97C339.414 25.73 339.894 25.37 340.254 24.89C340.634 24.39 340.824 23.76 340.824 23V22.25H336.834C336.074 22.25 335.474 22.43 335.034 22.79C334.614 23.13 334.404 23.6 334.404 24.2C334.404 24.84 334.624 25.35 335.064 25.73C335.504 26.11 336.144 26.3 336.984 26.3Z" fill="white"/>
<g clip-path="url(#clip0_116_362)">
<path d="M94.211 22.5595C93.2723 23.5274 91.9689 24.0399 90.4414 24.0417C90.429 24.0417 90.4165 24.041 90.4042 24.0409C90.3918 24.041 90.3794 24.0417 90.3671 24.0417C88.8395 24.0399 87.5361 23.5274 86.5973 22.5595C85.6494 21.5812 85.1359 20.1669 85.1419 18.564C85.1359 16.9617 85.6494 15.546 86.5979 14.5677C87.5361 13.5997 88.8395 13.0868 90.3675 13.0854H90.3762C90.3856 13.0854 90.3948 13.086 90.4042 13.086C90.4135 13.086 90.4227 13.0854 90.4321 13.0854H90.4408C91.9688 13.0868 93.2723 13.5997 94.2106 14.5677C95.159 15.546 95.6724 16.9617 95.6665 18.564C95.6724 20.1669 95.159 21.5812 94.211 22.5595ZM101 18.5626C100.987 14.5175 99.3411 11.5003 96.0959 9.59222C94.3592 8.57127 92.3894 8.11857 90.4042 8.1324C88.4189 8.11857 86.4492 8.57127 84.7125 9.59222C81.4673 11.5003 79.8217 14.5175 79.8084 18.5626H79.8079C79.8208 22.6087 81.4668 25.6264 84.7121 27.535C86.3973 28.5256 88.3111 28.9895 90.2518 29C90.3022 29 90.3534 28.9984 90.4042 28.9978C90.4549 28.9984 90.5063 29 90.5566 29C92.4973 28.9895 94.4111 28.5256 96.0964 27.535C99.3416 25.6264 100.988 22.6087 101 18.5626H101Z" fill="white"/>
<path d="M26.4319 8.35574V13.3173H33.8836V28.8186H39.3379V13.3173H46.9252V8.35574H26.4319Z" fill="white"/>
<path d="M19.1665 28.8186H24.6709V8.31384H19.1665V28.8186Z" fill="white"/>
<path d="M0 28.8186H5.50392V8.31384H0V28.8186Z" fill="white"/>
<path d="M13.8044 8.31384L5.50439 28.8186H11.1788L19.1614 8.31384H13.8044Z" fill="white"/>
<path d="M69.0165 8.31384L63.5539 21.8089L58.0908 8.31384H48.6863V28.8186H54.1903V12.0552L60.7165 28.8186H66.3908L72.9171 12.0547V28.8186H78.422V8.31384H69.0165Z" fill="white"/>
<path d="M21.9161 1.00052C20.3945 1.00052 19.1614 2.22352 19.1614 3.73141C19.1614 5.23972 20.3945 6.4624 21.9161 6.4624C23.4377 6.4624 24.6709 5.23972 24.6709 3.73141C24.6709 2.22352 23.4377 1.00052 21.9161 1.00052Z" fill="white"/>
</g>
<circle cx="112.5" cy="19.5" r="4.5" fill="white"/>
<defs>
<clipPath id="clip0_116_362">
<rect width="101" height="28" fill="white" transform="translate(0 1)"/>
</clipPath>
</defs>
</svg>
