<svg width="101" height="28" viewBox="0 0 101 28" fill="none" xmlns="http://www.w3.org/2000/svg">
<g clip-path="url(#clip0_56_453)">
<path d="M94.2108 21.5595C93.2721 22.5274 91.9686 23.0399 90.4411 23.0417C90.4288 23.0417 90.4163 23.041 90.4039 23.0409C90.3916 23.041 90.3792 23.0417 90.3668 23.0417C88.8392 23.0399 87.5359 22.5274 86.5971 21.5595C85.6491 20.5812 85.1357 19.1669 85.1416 17.564C85.1357 15.9617 85.6491 14.546 86.5976 13.5677C87.5359 12.5997 88.8392 12.0868 90.3673 12.0854H90.376C90.3854 12.0854 90.3945 12.086 90.4039 12.086C90.4133 12.086 90.4225 12.0854 90.4318 12.0854H90.4406C91.9686 12.0868 93.2721 12.5997 94.2103 13.5677C95.1587 14.546 95.6722 15.9617 95.6662 17.564C95.6722 19.1669 95.1587 20.5812 94.2108 21.5595ZM101 17.5626C100.986 13.5175 99.3409 10.5003 96.0957 8.59222C94.359 7.57127 92.3891 7.11857 90.4039 7.1324C88.4187 7.11857 86.4489 7.57127 84.7123 8.59222C81.467 10.5003 79.8215 13.5175 79.8081 17.5626H79.8076C79.8205 21.6087 81.4665 24.6264 84.7118 26.535C86.397 27.5256 88.3109 27.9895 90.2515 28C90.3019 28 90.3532 27.9984 90.4039 27.9978C90.4546 27.9984 90.506 28 90.5563 28C92.4971 27.9895 94.4109 27.5256 96.0961 26.535C99.3413 24.6264 100.987 21.6087 101 17.5626H101Z" fill="white"/>
<path d="M26.4316 7.35574V12.3173H33.8833V27.8186H39.3377V12.3173H46.9249V7.35574H26.4316Z" fill="white"/>
<path d="M19.166 27.8186H24.6704V7.31384H19.166V27.8186Z" fill="white"/>
<path d="M0 27.8186H5.50392V7.31384H0V27.8186Z" fill="white"/>
<path d="M13.8039 7.31384L5.50391 27.8186H11.1783L19.1609 7.31384H13.8039Z" fill="white"/>
<path d="M69.0167 7.31384L63.5541 20.8089L58.091 7.31384H48.6865V27.8186H54.1905V11.0552L60.7167 27.8186H66.391L72.9174 11.0547V27.8186H78.4222V7.31384H69.0167Z" fill="white"/>
<path d="M21.9159 0.00052309C20.3943 0.00052309 19.1611 1.22352 19.1611 2.73141C19.1611 4.23972 20.3943 5.4624 21.9159 5.4624C23.4374 5.4624 24.6707 4.23972 24.6707 2.73141C24.6707 1.22352 23.4374 0.00052309 21.9159 0.00052309Z" fill="white"/>
</g>
<defs>
<clipPath id="clip0_56_453">
<rect width="101" height="28" fill="white"/>
</clipPath>
</defs>
</svg>
