<svg width="26" height="22" viewBox="0 0 26 22" fill="none" xmlns="http://www.w3.org/2000/svg">
<path d="M25.9698 9.37855L20.2233 0H8.7267L11.452 4.44366L12.2835 5.80145L11.2907 7.42374H9.30331L8.47181 6.06511L5.74828 1.61977L0 11L5.7465 20.3785L8.47181 15.9332L9.30331 14.5746H11.2907L12.2844 16.1985L11.4511 17.5563L8.72759 22H20.2242L25.9698 12.6215H18.8597L17.8651 11L18.8597 9.37855H25.9698ZM5.72155 4.19847L6.78476 5.93328L5.15385 8.59427H12.0072L15.4366 3.00191H12.1739L11.1107 1.26626H18.7349L13.1266 10.4189H1.90807L5.72155 4.19847ZM11.1107 20.7337L12.1739 18.9981H15.4366L12.0072 13.4032H5.15385L6.78476 16.065L5.72155 17.8015L1.90807 11.5785H13.1266L14.6024 13.9876L18.7349 20.7337H11.1107ZM19.8579 16.5932L21.487 13.9314H23.617L19.8026 20.1527L16.4383 14.6661L14.1916 11L16.8518 6.65962L19.8026 1.84733L23.617 8.06863H21.487L19.8579 5.40679L16.4285 11L19.8579 16.5932Z" fill="white"/>
</svg>
